<mxfile host="app.diagrams.net" modified="2023-10-24T15:55:08.893Z" agent="Mozilla/5.0 (Windows NT 10.0; Win64; x64) AppleWebKit/537.36 (KHTML, like Gecko) Chrome/118.0.0.0 Safari/537.36" version="22.0.6" etag="b423ecK5ZYr8f4YCpBBm" type="github">
  <diagram name="Page-1" id="UDZjcF90zTVYCkCT0Txq">
    <mxGraphModel>
      <root>
        <mxCell id="0" />
        <mxCell id="1" parent="0" />
      </root>
    </mxGraphModel>
  </diagram>
</mxfile>
